<?xml version="1.0" standalone="no"?>
<!DOCTYPE svg PUBLIC "-//W3C//DTD SVG 20010904//EN"
 "http://www.w3.org/TR/2001/REC-SVG-20010904/DTD/svg10.dtd">
<svg version="1.0" xmlns="http://www.w3.org/2000/svg"
 width="100.000000pt" height="100.000000pt" viewBox="0 0 100.000000 100.000000"
 preserveAspectRatio="xMidYMid meet">
<metadata>
Created by potrace 1.14, written by Peter Selinger 2001-2017
</metadata>
<g transform="translate(0.000000,100.000000) scale(0.100000,-0.100000)"
fill="#000000" stroke="none">
<path d="M312 759 c-67 -44 -122 -85 -122 -90 0 -5 22 -39 49 -75 l49 -67 -85
-111 c-47 -61 -104 -136 -127 -166 -22 -30 -49 -64 -59 -75 -18 -20 -17 -20
204 -23 122 -1 223 -1 225 0 1 2 23 93 48 203 l45 200 -80 76 -81 77 32 62
c17 34 29 64 27 66 -2 2 -59 -32 -125 -77z"/>
<path d="M567 723 l-23 -48 58 -55 58 -55 -25 -78 c-31 -96 -31 -104 -2 -101
12 1 41 3 65 3 l42 1 -1 105 -1 104 -69 52 c-66 48 -75 63 -70 107 3 24 -8 11
-32 -35z"/>
<path d="M793 557 c4 -10 7 -27 7 -38 0 -11 12 -32 28 -47 41 -41 37 -81 -15
-169 -23 -40 -42 -73 -40 -74 11 -4 201 -3 208 2 5 3 -2 51 -17 110 -29 111
-33 117 -139 202 -28 23 -37 27 -32 14z"/>
</g>
</svg>
